# xmcd
#
# Track frame offsets:
#	150
#	11858
#	23326
#	37292
#	49923
#	62599
#	73692
#	86068
#	100776
#	117329
#	131760
#	148561
#	159819
#	174692
#	189475
#	200156
#	215209
#	229505
#	243673
#
# Disc length: 3487 seconds
#
# Revision: 1
# Processed by: cddbd v1.5.2PL0 Copyright (c) Steve Scherf et al.
# Submitted via: audiograbber 1.83.01
#
DISCID=180d9d13
DTITLE=Country Pickers, The - CP Special
DYEAR=2013
DGENRE=Country
TTITLE0=Rock Hearts
TTITLE1=CP Special
TTITLE2=Everybody's Reaching Out For Someone
TTITLE3=Endless Highway
TTITLE4=Garden And Memories
TTITLE5=Silence Or Tears
TTITLE6=Litlle White-Washed Chimney
TTITLE7=Steel Rails
TTITLE8=Christmas Time Back Home
TTITLE9=Jesse's Daybreak 
TTITLE10=Little White Church (Claudia and Friends)
TTITLE11=Shanty Town (Lochbrunner - Lansdorp - Horowitz)
TTITLE12=Walking On The Moon (Lochbrunner - Lansdorp - Horowitz)
TTITLE13=Loubmeissa (Sunny Mountain Grass)
TTITLE14=Six Feet Under The Ground (Sunny Mountain Grass)
TTITLE15=Katie (Delight and more)
TTITLE16=Two Years Ago (New Meadow)
TTITLE17=History Plane (Gasser-Logoz-Jam-Band)
TTITLE18=Chattahoochie (Diamonds and Dust)
EXTD=
EXTT0=
EXTT1=
EXTT2=
EXTT3=
EXTT4=
EXTT5=
EXTT6=
EXTT7=
EXTT8=
EXTT9=
EXTT10=
EXTT11=
EXTT12=
EXTT13=
EXTT14=
EXTT15=
EXTT16=
EXTT17=
EXTT18=
PLAYORDER=
